<svg class="svg-icon" style="width: 1em; height: 1em;vertical-align: middle;fill: currentColor;overflow: hidden;" viewBox="0 0 1024 1024" version="1.1" xmlns="http://www.w3.org/2000/svg"><path d="M511.98976 0.004096C229.679104 0.004096 0 229.6832 0 512s229.679104 511.995904 511.98976 511.995904C794.304512 1023.995904 1024 794.3168 1024 512S794.304512 0.004096 511.98976 0.004096zM511.98976 1008.140288C238.426112 1008.140288 15.867904 785.577984 15.867904 512c0-273.563648 222.55616-496.125952 496.119808-496.125952 273.575936 0 496.140288 222.564352 496.140288 496.125952C1008.130048 785.577984 785.565696 1008.140288 511.98976 1008.140288z"  /><path d="M776.935424 661.549056l-11.702272 0-521.316352-0.288768 0.014336-29.681664 466.716672 0.262144 0.555008-60.420096C711.204864 571.420672 780.869632 661.549056 776.935424 661.549056z"  /><path d="M312.80128 795.838464l-68.882432-90.116096 533.016576 0 0 29.679616L311.812096 735.401984 312.80128 795.838464z"  /><path d="M478.152704 314.27584c-14.628864-8.302592-30.5664-12.46208-47.796224-12.46208-22.196224 0-39.95648 8.710144-53.280768 26.130432-13.326336 17.422336-19.994624 39.958528-19.994624 67.608576l1.11616 0c13.760512-21.071872 34.16064-31.62112 61.188096-31.62112 24.174592 0 43.362304 8.27392 57.561088 24.823808 14.19264 16.564224 21.295104 38.10304 21.295104 64.636928 0 29.014016-9.240576 52.969472-27.70944 71.880704-18.479104 18.900992-42.094592 28.350464-70.862848 28.350464-32.974848 0-58.236928-11.89888-75.782144-35.69664-17.549312-23.812096-26.318848-56.420352-26.318848-97.824768 0-48.723968 11.374592-88.317952 34.12992-118.751232 22.747136-30.435328 54.398976-45.654016 94.941184-45.654016 21.817344 0 38.991872 2.594816 51.513344 7.811072L478.152704 314.27584zM359.124992 453.943296c0 14.882816 3.725312 27.521024 11.157504 37.941248 7.44448 10.420224 17.231872 15.624192 29.384704 15.624192 12.275712 0 21.950464-4.767744 29.016064-14.319616 7.0656-9.549824 10.600448-21.506048 10.600448-35.897344 0-32.360448-13.326336-48.535552-39.985152-48.535552-12.027904 0-21.731328 4.276224-29.108224 12.824576C362.81344 430.145536 359.124992 440.926208 359.124992 453.943296z"  /><path d="M526.508032 409.305088c0-49.840128 9.172992-87.898112 27.521024-114.188288 18.348032-26.27584 44.88192-39.419904 79.599616-39.419904 66.209792 0 99.311616 48.971776 99.311616 146.91328 0 48.232448-8.992768 85.460992-26.966016 111.679488-17.977344 26.232832-43.956224 39.333888-77.9264 39.333888C560.355328 553.623552 526.508032 505.522176 526.508032 409.305088zM587.319296 407.82848c0 66.44736 14.19264 99.680256 42.592256 99.680256 27.891712 0 41.84064-34.215936 41.84064-102.66624 0-68.67968-13.572096-103.028736-40.72448-103.028736C601.890816 301.81376 587.319296 337.145856 587.319296 407.82848z"  /></svg>